<?xml version="1.0" encoding="utf-8"?>
<!DOCTYPE svg PUBLIC "-//W3C//DTD SVG 1.1//EN" "http://www.w3.org/Graphics/SVG/1.1/DTD/svg11.dtd">
<svg xmlns="http://www.w3.org/2000/svg" xmlns:xlink="http://www.w3.org/1999/xlink" version="1.1" id="Name" x="0px" y="0px" width="215.757px" height="18.192px" viewBox="0 0 215.757 18.192" enable-background="new 0 0 215.757 18.192" xml:space="preserve"><style>
.dh-fill {fill: #b0b3b3 !important;}
</style>
<g>
	<path class="dh-fill" d="M0,17.964V0.254h5.979c2.412,0,4.321,0.362,5.726,1.085s2.522,1.788,3.352,3.193s1.244,2.937,1.244,4.596   c0,1.185-0.229,2.319-0.686,3.402s-1.109,2.035-1.955,2.856c-0.863,0.847-1.866,1.485-3.009,1.917   c-0.668,0.263-1.282,0.438-1.841,0.527c-0.559,0.088-1.625,0.133-3.199,0.133H0z M5.713,2.514H2.539v13.19h3.25   c1.27,0,2.255-0.087,2.958-0.26c0.703-0.174,1.289-0.395,1.758-0.66c0.47-0.268,0.899-0.595,1.289-0.984   c1.252-1.27,1.879-2.873,1.879-4.812c0-1.904-0.643-3.458-1.93-4.659c-0.474-0.449-1.018-0.817-1.631-1.104   S8.917,2.747,8.366,2.653S6.932,2.514,5.713,2.514z"/>
	<path class="dh-fill" d="M26.188,0.152h1.785l7.952,17.837h-2.599l-2.364-5.256h-7.567l-2.216,5.256H18.57L26.188,0.152z M29.918,10.474   L27.057,4.05l-2.653,6.424H29.918z"/>
	<path class="dh-fill" d="M53.94,0.254h2.412v17.735h-2.184L42.311,4.33v13.659h-2.387V0.254h2.057L53.94,14.029V0.254z"/>
	<path class="dh-fill" d="M83.776,0.254h2.539v17.735h-2.539v-7.719h-9.966v7.719h-2.539V0.254h2.539v7.668h9.966V0.254z"/>
	<path class="dh-fill" d="M100.936,0c2.74,0,5.022,0.868,6.844,2.603c1.824,1.735,2.734,3.91,2.734,6.525s-0.92,4.779-2.76,6.494   c-1.839,1.713-4.158,2.57-6.958,2.57c-2.672,0-4.899-0.857-6.68-2.57c-1.78-1.715-2.67-3.862-2.67-6.443   c0-2.649,0.896-4.841,2.689-6.576S98.195,0,100.936,0z M101.037,2.412c-2.029,0-3.697,0.635-5.004,1.904   c-1.306,1.27-1.959,2.89-1.959,4.862c0,1.913,0.655,3.504,1.966,4.773s2.951,1.904,4.921,1.904c1.979,0,3.629-0.647,4.953-1.942   c1.322-1.295,1.984-2.907,1.984-4.837c0-1.879-0.662-3.459-1.984-4.742C104.59,3.053,102.965,2.412,101.037,2.412z"/>
	<path class="dh-fill" d="M115.583,17.989V0.229h5.624c1.692,0,3.043,0.457,4.05,1.371s1.511,2.141,1.511,3.682c0,1.033-0.258,1.947-0.774,2.742   s-1.223,1.373-2.12,1.732c-0.897,0.36-2.184,0.54-3.859,0.54h-1.879v7.693H115.583z M120.763,2.488h-2.628v5.548h2.78   c1.032,0,1.828-0.243,2.387-0.73s0.838-1.183,0.838-2.088C124.14,3.398,123.014,2.488,120.763,2.488z"/>
	<path class="dh-fill" d="M130.854,0.254h10.055v2.26h-7.516v5.408h7.262v2.272h-7.262v5.51h7.757v2.26h-10.296V0.254z"/>
	<path class="dh-fill" d="M168.943,0.254h2.532l-7.17,17.812h-0.559l-5.798-14.422l-5.859,14.422h-0.545l-7.148-17.812h2.559l4.887,12.226   l4.921-12.226h2.4l4.942,12.226L168.943,0.254z"/>
	<path class="dh-fill" d="M175.451,0.254h10.055v2.26h-7.516v5.408h7.262v2.272h-7.262v5.51h7.757v2.26h-10.296V0.254z"/>
	<path class="dh-fill" d="M190.617,0.254h2.539v15.425h7.985v2.311h-10.524V0.254z"/>
	<path class="dh-fill" d="M205.232,0.254h2.539v15.425h7.985v2.311h-10.524V0.254z"/>
</g>
</svg>
