<?xml version="1.0" encoding="utf-8"?>
<!DOCTYPE svg PUBLIC "-//W3C//DTD SVG 1.1//EN" "http://www.w3.org/Graphics/SVG/1.1/DTD/svg11.dtd">
<svg xmlns="http://www.w3.org/2000/svg" xmlns:xlink="http://www.w3.org/1999/xlink" version="1.1" x="0px" y="0px" width="125.054px" height="121.63px" viewBox="0 0 125.054 121.63" enable-background="new 0 0 125.054 121.63" xml:space="preserve"><style>
.dh-fill {fill: #b0b3b3 !important;}
</style>
<path class="dh-fill" d="M125.054,63.011c0,12.459-2.268,22.469-6.803,30.016c-4.533,7.547-9.87,13.66-16.016,18.341  c-8.717,6.841-20.914,10.263-36.593,10.263H63.8H0V0h50.547c7.605,0,14.115,0.395,19.526,1.184  c5.407,0.791,10.281,1.904,14.612,3.336c4.329,1.435,8.015,3.043,11.056,4.825c3.041,1.786,5.764,3.702,8.166,5.749  c4.15,3.394,7.791,7.402,10.922,12.023c3.13,4.624,5.616,9.976,7.462,16.059C124.135,49.261,125.054,55.872,125.054,63.011z   M75.578,57.113H41.567V30.95h-8.662v60.522h8.662V65.129h34.011v26.343h8.667V30.95h-8.667V57.113z"/>
</svg>
