<?xml version="1.0" encoding="utf-8"?>
<!DOCTYPE svg PUBLIC "-//W3C//DTD SVG 1.1//EN" "http://www.w3.org/Graphics/SVG/1.1/DTD/svg11.dtd">
<svg xmlns="http://www.w3.org/2000/svg" xmlns:xlink="http://www.w3.org/1999/xlink" version="1.1" x="0px" y="0px" width="199.995px" height="199.994px" viewBox="0 0 199.995 199.994" enable-background="new 0 0 199.995 199.994" xml:space="preserve"><style>
.dh-fill {fill: #b0b3b3 !important;}
</style>
<path class="dh-fill" d="M199.995,99.997c0,55.227-44.771,99.997-99.997,99.997C44.771,199.994,0,155.224,0,99.997C0,44.77,44.771,0,99.998,0  C155.224,0,199.995,44.77,199.995,99.997z M78.727,79.978c-0.674-1.881-1.183-5.979-1.183-5.979  c-0.146-1.177,0.616-2.545,1.693-3.041l13.423-6.172c1.077-0.496,1.723-1.842,1.435-2.992l-5.715-22.84  c-0.288-1.15-1.491-2.033-2.675-1.961c0,0-11.452,0.692-15.231,3.006c-4.744,2.905-12.65,12.167-13.394,17.679  c-1.314,9.731,7.373,28.611,11.261,37.628c3.746,8.684,13.122,25.286,18.915,32.761c6.015,7.762,17.883,24.811,26.956,28.566  c5.139,2.129,17.12-0.104,22.008-2.76c3.893-2.117,10.219-11.688,10.219-11.688c0.654-0.989,0.491-2.473-0.36-3.297l-16.923-16.37  c-0.853-0.825-2.341-0.938-3.309-0.253l-12.058,8.539c-0.968,0.685-2.534,0.66-3.48-0.055c0,0-3.294-2.488-4.587-4.014  C101.339,121.563,81.016,86.36,78.727,79.978z"/>
</svg>
