<?xml version="1.0" encoding="utf-8"?>
<!DOCTYPE svg PUBLIC "-//W3C//DTD SVG 1.1//EN" "http://www.w3.org/Graphics/SVG/1.1/DTD/svg11.dtd">
<svg xmlns="http://www.w3.org/2000/svg" xmlns:xlink="http://www.w3.org/1999/xlink" version="1.1" x="0px" y="0px" width="199.995px" height="199.994px" viewBox="0 0 199.995 199.994" enable-background="new 0 0 199.995 199.994" xml:space="preserve"><style>
.dh-fill {fill: #eff0f0 !important;}
</style>
<path class="dh-fill" d="M199.995,99.997c0,55.227-44.771,99.997-99.997,99.997C44.771,199.994,0,155.224,0,99.997C0,44.77,44.771,0,99.998,0  C155.224,0,199.995,44.77,199.995,99.997z M85.332,148.931c43.786,0,67.73-36.273,67.73-67.73c0-1.032-0.023-2.059-0.069-3.079  c4.65-3.356,8.687-7.549,11.878-12.323c-4.27,1.893-8.857,3.173-13.673,3.748c4.916-2.946,8.69-7.611,10.468-13.17  c-4.6,2.728-9.694,4.709-15.117,5.776c-4.342-4.626-10.528-7.518-17.375-7.518c-13.148,0-23.807,10.659-23.807,23.805  c0,1.866,0.213,3.683,0.617,5.425C86.2,82.873,68.66,73.396,56.918,58.993c-2.049,3.516-3.223,7.605-3.223,11.968  c0,8.259,4.203,15.545,10.59,19.813c-3.902-0.124-7.573-1.194-10.783-2.977c-0.001,0.1-0.001,0.199-0.001,0.299  c0,11.533,8.205,21.154,19.096,23.342c-1.998,0.544-4.101,0.834-6.272,0.834c-1.533,0-3.025-0.148-4.478-0.426  c3.029,9.457,11.82,16.339,22.237,16.531c-8.147,6.385-18.412,10.191-29.564,10.191c-1.921,0-3.816-0.113-5.679-0.334  C59.375,144.989,71.889,148.931,85.332,148.931"/>
</svg>
